<svg id="svg" version="1.1" xmlns="http://www.w3.org/2000/svg" xmlns:xlink="http://www.w3.org/1999/xlink" width="400" height="319.82758620689657" viewBox="0, 0, 400,319.82758620689657"><g id="svgg"><path id="path0" d="M198.720 90.560 C 198.720 90.736,198.360 90.880,197.920 90.880 C 197.439 90.880,197.120 91.063,197.120 91.339 C 197.120 91.601,196.744 91.841,196.240 91.899 C 195.557 91.977,195.338 92.191,195.261 92.853 C 195.147 93.839,194.454 94.217,193.598 93.759 C 192.795 93.329,192.640 93.356,192.640 93.920 C 192.640 94.219,192.338 94.400,191.840 94.400 C 191.342 94.400,191.040 94.581,191.040 94.880 C 191.040 95.144,190.896 95.360,190.720 95.360 C 190.544 95.360,190.400 95.576,190.400 95.840 C 190.400 96.139,190.098 96.320,189.600 96.320 C 189.078 96.320,188.800 96.499,188.800 96.836 C 188.800 97.252,188.584 97.311,187.680 97.141 C 186.793 96.975,186.560 97.034,186.560 97.425 C 186.560 97.740,186.268 97.920,185.760 97.920 C 185.262 97.920,184.960 98.101,184.960 98.400 C 184.960 98.702,184.655 98.880,184.137 98.880 C 183.293 98.880,182.400 99.526,182.400 100.137 C 182.400 100.326,181.968 100.480,181.440 100.480 C 180.800 100.480,180.480 100.640,180.480 100.960 C 180.480 101.257,180.179 101.440,179.689 101.440 C 179.068 101.440,178.837 101.664,178.615 102.480 C 178.438 103.131,178.166 103.475,177.886 103.401 C 177.641 103.336,177.188 103.211,176.880 103.124 C 176.512 103.020,176.320 103.143,176.320 103.483 C 176.320 103.781,176.058 104.000,175.699 104.000 C 175.357 104.000,174.989 104.144,174.880 104.320 C 174.771 104.496,174.425 104.640,174.110 104.640 C 173.288 104.640,172.270 105.660,172.413 106.340 C 172.519 106.843,172.384 106.891,171.387 106.704 C 170.457 106.529,170.240 106.586,170.240 107.004 C 170.240 107.341,169.962 107.520,169.440 107.520 C 169.000 107.520,168.640 107.664,168.640 107.840 C 168.640 108.016,168.215 108.160,167.695 108.160 C 166.866 108.160,166.723 108.300,166.537 109.288 C 166.335 110.369,166.281 110.407,165.243 110.212 C 164.540 110.080,164.160 110.134,164.160 110.364 C 164.160 110.560,163.800 110.720,163.360 110.720 C 162.673 110.720,162.559 110.867,162.550 111.760 C 162.541 112.693,162.496 112.742,162.115 112.240 C 161.585 111.543,160.583 111.480,160.844 112.160 C 160.961 112.464,160.840 112.640,160.514 112.640 C 160.231 112.640,160.000 112.872,160.000 113.155 C 160.000 113.545,159.805 113.620,159.193 113.467 C 158.627 113.325,158.330 113.410,158.199 113.752 C 158.096 114.020,157.676 114.240,157.266 114.240 C 156.659 114.240,156.502 114.433,156.420 115.280 C 156.325 116.270,156.263 116.316,155.120 116.226 C 154.440 116.173,153.920 116.277,153.920 116.466 C 153.920 116.650,153.575 116.800,153.154 116.800 C 152.733 116.800,152.306 117.016,152.204 117.280 C 152.103 117.544,151.656 117.760,151.210 117.760 C 150.642 117.760,150.400 117.933,150.400 118.339 C 150.400 119.323,149.555 120.231,149.078 119.760 C 148.523 119.213,147.840 119.257,147.840 119.840 C 147.840 120.139,147.538 120.320,147.040 120.320 C 146.542 120.320,146.240 120.501,146.240 120.800 C 146.240 121.102,145.935 121.280,145.417 121.280 C 144.355 121.280,143.690 121.961,143.643 123.097 C 143.621 123.638,143.547 123.775,143.459 123.440 C 143.276 122.737,141.760 122.665,141.760 123.360 C 141.760 123.665,141.453 123.840,140.918 123.840 C 140.130 123.840,140.088 123.914,140.263 124.994 C 140.420 125.958,140.348 126.174,139.825 126.311 C 138.968 126.535,138.823 195.520,139.680 195.520 C 139.944 195.520,140.160 195.664,140.160 195.840 C 140.160 196.016,140.520 196.160,140.960 196.160 C 141.483 196.160,141.760 196.339,141.760 196.677 C 141.760 197.017,141.952 197.140,142.320 197.036 C 142.628 196.949,143.081 196.824,143.326 196.759 C 143.606 196.685,143.878 197.029,144.055 197.680 C 144.294 198.557,144.488 198.720,145.289 198.720 C 145.921 198.720,146.240 198.881,146.240 199.200 C 146.240 199.499,146.542 199.680,147.040 199.680 C 147.538 199.680,147.840 199.861,147.840 200.160 C 147.840 200.459,148.142 200.640,148.640 200.640 C 149.080 200.640,149.440 200.784,149.440 200.960 C 149.440 201.136,149.656 201.280,149.920 201.280 C 150.184 201.280,150.400 201.496,150.400 201.760 C 150.400 202.060,150.703 202.240,151.210 202.240 C 151.656 202.240,152.103 202.456,152.204 202.720 C 152.306 202.984,152.733 203.200,153.154 203.200 C 153.575 203.200,153.920 203.350,153.920 203.534 C 153.920 203.723,154.440 203.827,155.120 203.774 C 156.263 203.684,156.325 203.730,156.420 204.720 C 156.502 205.567,156.659 205.760,157.266 205.760 C 157.676 205.760,158.094 205.976,158.196 206.240 C 158.297 206.504,158.744 206.720,159.190 206.720 C 159.635 206.720,160.000 206.865,160.000 207.041 C 160.000 207.218,160.468 207.326,161.040 207.281 C 161.862 207.217,162.071 207.318,162.036 207.760 C 162.011 208.068,162.119 208.320,162.276 208.320 C 162.432 208.320,162.560 208.536,162.560 208.800 C 162.560 209.067,162.844 209.280,163.200 209.280 C 163.552 209.280,163.840 209.072,163.840 208.819 C 163.840 208.565,164.006 208.255,164.210 208.129 C 164.474 207.966,164.522 208.188,164.378 208.910 C 164.188 209.862,164.230 209.920,165.128 209.920 C 165.761 209.920,166.080 210.081,166.080 210.400 C 166.080 210.664,166.224 210.880,166.400 210.880 C 166.576 210.880,166.720 211.096,166.720 211.360 C 166.720 212.055,168.236 211.983,168.419 211.280 C 168.509 210.935,168.580 211.059,168.603 211.600 C 168.635 212.363,168.772 212.480,169.634 212.480 C 170.364 212.480,170.582 212.601,170.453 212.937 C 170.316 213.295,170.507 213.356,171.337 213.222 C 172.344 213.058,172.406 213.107,172.612 214.205 C 172.803 215.222,172.942 215.360,173.775 215.360 C 174.295 215.360,174.720 215.504,174.720 215.680 C 174.720 215.856,175.080 216.000,175.520 216.000 C 176.018 216.000,176.320 216.181,176.320 216.480 C 176.320 216.744,176.525 216.960,176.777 216.960 C 177.028 216.960,177.299 217.212,177.379 217.520 C 177.519 218.053,177.528 218.053,177.563 217.520 C 177.602 216.925,178.240 216.721,178.240 217.303 C 178.240 217.868,179.109 218.560,179.817 218.560 C 180.207 218.560,180.480 218.768,180.480 219.064 C 180.480 219.437,180.738 219.541,181.471 219.464 C 182.311 219.376,182.527 219.507,182.885 220.320 C 183.156 220.936,183.317 221.079,183.334 220.720 C 183.366 220.039,184.320 219.962,184.320 220.640 C 184.320 220.904,184.464 221.120,184.640 221.120 C 184.816 221.120,184.960 221.336,184.960 221.600 C 184.960 221.899,185.262 222.080,185.760 222.080 C 186.258 222.080,186.560 222.261,186.560 222.560 C 186.560 222.862,186.865 223.040,187.383 223.040 C 188.227 223.040,189.120 223.686,189.120 224.297 C 189.120 224.486,189.552 224.640,190.080 224.640 C 190.720 224.640,191.040 224.800,191.040 225.120 C 191.040 225.419,191.342 225.600,191.840 225.600 C 192.338 225.600,192.640 225.781,192.640 226.080 C 192.640 226.641,193.318 226.714,193.824 226.208 C 194.523 225.509,195.515 226.183,195.308 227.218 C 195.087 228.324,196.614 228.690,196.899 227.600 C 196.980 227.292,197.062 227.508,197.083 228.080 C 197.115 228.966,197.238 229.120,197.920 229.120 C 198.360 229.120,198.720 229.264,198.720 229.440 C 198.720 229.616,199.296 229.760,200.000 229.760 C 200.704 229.760,201.280 229.616,201.280 229.440 C 201.280 229.264,201.640 229.120,202.080 229.120 C 202.578 229.120,202.880 228.939,202.880 228.640 C 202.880 228.320,203.200 228.160,203.840 228.160 C 204.696 228.160,204.800 228.054,204.800 227.190 C 204.800 226.138,205.556 225.588,206.166 226.198 C 206.681 226.713,207.360 226.646,207.360 226.080 C 207.360 225.781,207.662 225.600,208.160 225.600 C 208.658 225.600,208.960 225.419,208.960 225.120 C 208.960 224.800,209.280 224.640,209.920 224.640 C 210.448 224.640,210.880 224.486,210.880 224.297 C 210.880 223.676,211.779 223.040,212.657 223.040 C 213.457 223.040,213.506 222.964,213.325 222.000 C 213.175 221.196,213.206 221.087,213.461 221.520 C 213.865 222.204,215.040 222.264,215.040 221.600 C 215.040 221.336,215.292 221.115,215.600 221.110 C 216.300 221.097,217.095 220.493,217.368 219.766 C 217.527 219.341,217.803 219.257,218.548 219.406 C 219.312 219.558,219.520 219.489,219.520 219.080 C 219.520 218.763,219.786 218.560,220.202 218.560 C 220.578 218.560,221.166 218.236,221.509 217.840 C 221.853 217.444,222.266 217.102,222.427 217.080 C 222.588 217.058,222.936 217.022,223.200 217.000 C 223.464 216.978,223.680 216.744,223.680 216.480 C 223.680 216.181,223.982 216.000,224.480 216.000 C 224.920 216.000,225.280 215.856,225.280 215.680 C 225.280 215.504,225.705 215.360,226.225 215.360 C 227.053 215.360,227.197 215.220,227.381 214.240 C 227.533 213.429,227.758 213.120,228.196 213.120 C 228.528 213.120,228.800 212.976,228.800 212.800 C 228.800 212.624,229.376 212.480,230.080 212.480 C 231.302 212.480,231.362 212.433,231.404 211.440 C 231.435 210.688,231.486 210.599,231.586 211.120 C 231.748 211.962,233.280 212.179,233.280 211.360 C 233.280 211.096,233.424 210.880,233.600 210.880 C 233.776 210.880,233.920 210.664,233.920 210.400 C 233.920 210.104,234.220 209.920,234.701 209.920 C 235.131 209.920,235.571 209.776,235.680 209.600 C 235.789 209.424,236.208 209.280,236.613 209.280 C 237.165 209.280,237.423 209.022,237.654 208.240 C 237.925 207.320,238.078 207.209,238.980 207.281 C 239.541 207.326,240.000 207.218,240.000 207.041 C 240.000 206.865,240.365 206.720,240.810 206.720 C 241.256 206.720,241.703 206.504,241.804 206.240 C 241.906 205.976,242.312 205.760,242.708 205.760 C 243.243 205.760,243.506 205.494,243.734 204.720 C 244.005 203.800,244.158 203.689,245.060 203.761 C 245.621 203.806,246.080 203.698,246.080 203.521 C 246.080 203.345,246.512 203.200,247.040 203.200 C 247.680 203.200,248.000 203.040,248.000 202.720 C 248.000 202.421,248.302 202.240,248.800 202.240 C 249.298 202.240,249.600 202.059,249.600 201.760 C 249.600 201.496,249.816 201.280,250.080 201.280 C 250.344 201.280,250.560 201.136,250.560 200.960 C 250.560 200.784,250.920 200.640,251.360 200.640 C 251.858 200.640,252.160 200.459,252.160 200.160 C 252.160 199.861,252.462 199.680,252.960 199.680 C 253.642 199.680,253.765 199.526,253.797 198.640 C 253.818 198.068,253.900 197.852,253.981 198.160 C 254.263 199.242,256.320 198.537,256.320 197.358 C 256.320 197.043,256.604 196.953,257.280 197.052 C 258.008 197.159,258.240 197.068,258.240 196.676 C 258.240 196.339,258.517 196.160,259.040 196.160 C 259.778 196.160,259.840 196.045,259.840 194.686 C 259.840 193.507,259.936 193.248,260.320 193.396 C 260.745 193.559,260.800 189.914,260.800 161.773 C 260.800 131.751,260.769 129.959,260.240 129.821 C 259.737 129.689,259.735 129.670,260.220 129.637 C 260.912 129.590,260.967 127.084,260.282 126.821 C 259.999 126.712,259.840 126.146,259.840 125.246 C 259.840 123.960,259.772 123.840,259.040 123.840 C 258.542 123.840,258.240 123.659,258.240 123.360 C 258.240 122.541,256.708 122.758,256.546 123.600 C 256.448 124.109,256.394 124.008,256.364 123.257 C 256.311 121.971,255.688 121.280,254.583 121.280 C 254.065 121.280,253.760 121.102,253.760 120.800 C 253.760 120.501,253.458 120.320,252.960 120.320 C 252.478 120.320,252.160 120.137,252.160 119.860 C 252.160 119.576,251.764 119.362,251.120 119.300 C 250.407 119.231,249.981 118.974,249.764 118.480 C 249.577 118.054,249.167 117.760,248.758 117.760 C 248.379 117.760,247.986 117.544,247.884 117.280 C 247.783 117.016,247.336 116.800,246.890 116.800 C 246.445 116.800,246.080 116.653,246.080 116.474 C 246.080 116.291,245.486 116.186,244.720 116.234 C 243.364 116.320,243.360 116.317,243.460 115.280 C 243.549 114.362,243.469 114.240,242.775 114.240 C 242.342 114.240,241.904 114.020,241.801 113.752 C 241.670 113.410,241.373 113.325,240.807 113.467 C 240.195 113.620,240.000 113.545,240.000 113.155 C 240.000 112.872,239.856 112.640,239.680 112.640 C 239.504 112.640,239.360 112.424,239.360 112.160 C 239.360 111.861,239.058 111.680,238.560 111.680 C 237.966 111.680,237.760 111.849,237.760 112.339 C 237.760 112.701,237.640 112.924,237.493 112.833 C 237.347 112.742,237.291 112.230,237.370 111.694 C 237.498 110.821,237.426 110.720,236.676 110.720 C 236.216 110.720,235.840 110.576,235.840 110.400 C 235.840 110.224,235.624 110.080,235.360 110.080 C 235.096 110.080,234.880 109.864,234.880 109.600 C 234.880 109.301,234.578 109.120,234.080 109.120 C 233.582 109.120,233.280 108.939,233.280 108.640 C 233.280 108.320,232.960 108.160,232.320 108.160 C 231.792 108.160,231.360 108.016,231.360 107.840 C 231.360 107.664,231.000 107.520,230.560 107.520 C 230.037 107.520,229.760 107.341,229.760 107.004 C 229.760 106.612,229.528 106.521,228.800 106.628 C 228.107 106.730,227.840 106.639,227.840 106.302 C 227.840 105.679,226.610 104.640,225.871 104.640 C 225.546 104.640,225.280 104.496,225.280 104.320 C 225.280 104.144,224.920 104.000,224.480 104.000 C 223.981 104.000,223.680 103.819,223.680 103.519 C 223.680 103.173,223.388 103.060,222.640 103.119 C 221.893 103.177,221.600 103.065,221.600 102.720 C 221.600 102.028,220.950 101.440,220.183 101.440 C 219.807 101.440,219.520 101.232,219.520 100.960 C 219.520 100.640,219.200 100.480,218.560 100.480 C 217.889 100.480,217.600 100.324,217.600 99.963 C 217.600 99.583,217.386 99.486,216.800 99.598 C 216.264 99.701,216.000 99.608,216.000 99.316 C 216.000 99.076,215.784 98.880,215.520 98.880 C 215.256 98.880,215.040 98.664,215.040 98.400 C 215.040 98.101,214.738 97.920,214.240 97.920 C 213.715 97.920,213.440 97.741,213.440 97.400 C 213.440 96.993,213.232 96.922,212.480 97.072 C 211.760 97.216,211.520 97.146,211.520 96.792 C 211.520 96.502,211.212 96.320,210.720 96.320 C 210.222 96.320,209.920 96.139,209.920 95.840 C 209.920 95.576,209.704 95.360,209.440 95.360 C 209.176 95.360,208.960 95.144,208.960 94.880 C 208.960 94.581,208.658 94.400,208.160 94.400 C 207.662 94.400,207.360 94.219,207.360 93.920 C 207.360 93.390,207.186 93.362,206.240 93.742 C 205.268 94.133,204.537 93.608,204.720 92.651 C 204.859 91.923,204.772 91.840,203.877 91.840 C 203.204 91.840,202.880 91.684,202.880 91.360 C 202.880 91.061,202.578 90.880,202.080 90.880 C 201.640 90.880,201.280 90.736,201.280 90.560 C 201.280 90.384,200.704 90.240,200.000 90.240 C 199.296 90.240,198.720 90.384,198.720 90.560 M200.436 109.600 C 200.296 109.963,200.493 110.080,201.246 110.080 C 201.793 110.080,202.240 110.224,202.240 110.400 C 202.240 110.576,202.600 110.720,203.040 110.720 C 203.538 110.720,203.840 110.901,203.840 111.200 C 203.840 111.499,204.142 111.680,204.640 111.680 C 205.234 111.680,205.440 111.511,205.440 111.021 C 205.440 110.659,205.565 110.439,205.717 110.533 C 205.869 110.628,205.926 111.063,205.842 111.500 C 205.653 112.488,206.389 113.280,207.497 113.280 C 208.015 113.280,208.320 113.458,208.320 113.760 C 208.320 114.059,208.622 114.240,209.120 114.240 C 209.618 114.240,209.920 114.421,209.920 114.720 C 209.920 115.255,210.485 115.339,211.171 114.905 C 211.892 114.448,212.480 114.874,212.480 115.853 C 212.480 116.602,212.631 116.775,213.360 116.859 C 213.855 116.916,214.205 117.135,214.160 117.360 C 214.111 117.606,214.436 117.760,215.006 117.760 C 215.518 117.760,216.011 117.967,216.109 118.223 C 216.238 118.558,216.599 118.634,217.423 118.501 C 218.523 118.322,218.560 118.349,218.560 119.318 C 218.560 120.173,218.677 120.320,219.360 120.320 C 219.858 120.320,220.160 120.501,220.160 120.800 C 220.160 121.120,220.480 121.280,221.120 121.280 C 221.648 121.280,222.080 121.424,222.080 121.600 C 222.080 121.776,222.291 121.920,222.550 121.920 C 222.836 121.920,222.948 122.108,222.836 122.400 C 222.702 122.749,222.873 122.880,223.462 122.880 C 223.965 122.880,224.329 122.667,224.419 122.320 C 224.500 122.012,224.582 122.228,224.603 122.800 C 224.635 123.686,224.758 123.840,225.440 123.840 C 225.880 123.840,226.240 123.993,226.240 124.180 C 226.240 124.371,226.690 124.477,227.263 124.420 C 228.175 124.331,228.319 124.433,228.589 125.360 C 228.840 126.220,229.051 126.400,229.806 126.400 C 230.405 126.400,230.720 126.565,230.720 126.880 C 230.720 127.179,231.022 127.360,231.520 127.360 C 231.960 127.360,232.320 127.513,232.320 127.700 C 232.320 127.891,232.770 127.997,233.343 127.940 C 234.255 127.851,234.399 127.953,234.669 128.880 C 234.898 129.663,235.154 129.920,235.707 129.920 C 236.112 129.920,236.531 130.064,236.640 130.240 C 236.749 130.416,237.189 130.560,237.619 130.560 C 238.117 130.560,238.400 130.743,238.400 131.065 C 238.400 131.461,238.610 131.525,239.367 131.358 C 240.238 131.167,240.369 131.244,240.679 132.133 C 240.934 132.866,241.220 133.120,241.791 133.120 C 242.261 133.120,242.560 133.307,242.560 133.600 C 242.560 133.920,242.880 134.080,243.520 134.080 L 244.480 134.080 244.480 160.000 L 244.480 185.920 243.520 185.920 C 242.880 185.920,242.560 186.080,242.560 186.400 C 242.560 186.699,242.258 186.880,241.760 186.880 C 241.320 186.880,240.960 187.024,240.960 187.200 C 240.960 187.376,240.600 187.520,240.160 187.520 C 239.484 187.520,239.360 187.669,239.360 188.480 C 239.360 189.384,239.287 189.440,238.099 189.440 C 237.405 189.440,236.749 189.584,236.640 189.760 C 236.531 189.936,236.112 190.080,235.707 190.080 C 235.154 190.080,234.897 190.337,234.667 191.120 C 234.404 192.017,234.237 192.146,233.452 192.060 C 232.952 192.005,232.443 192.121,232.322 192.316 C 232.201 192.512,231.791 192.695,231.411 192.724 C 231.031 192.753,230.720 192.962,230.720 193.188 C 230.720 193.428,230.338 193.600,229.806 193.600 C 229.051 193.600,228.840 193.780,228.589 194.640 C 228.319 195.567,228.175 195.669,227.263 195.580 C 226.690 195.523,226.240 195.629,226.240 195.820 C 226.240 196.007,225.880 196.160,225.440 196.160 C 224.942 196.160,224.640 196.341,224.640 196.640 C 224.640 196.960,224.320 197.120,223.680 197.120 C 223.040 197.120,222.720 197.280,222.720 197.600 C 222.720 197.864,222.576 198.080,222.400 198.080 C 222.224 198.080,222.080 198.292,222.080 198.552 C 222.080 198.906,221.840 198.976,221.120 198.832 C 220.368 198.682,220.160 198.753,220.160 199.160 C 220.160 199.497,219.887 199.680,219.385 199.680 C 218.786 199.680,218.563 199.896,218.401 200.636 C 218.141 201.820,217.799 202.049,216.962 201.601 C 216.447 201.325,216.271 201.356,216.121 201.746 C 216.011 202.034,215.545 202.240,215.006 202.240 C 214.436 202.240,214.111 202.394,214.160 202.640 C 214.204 202.861,213.865 203.084,213.401 203.137 C 212.773 203.210,212.486 203.491,212.255 204.257 C 212.063 204.895,211.776 205.235,211.494 205.161 C 211.244 205.096,210.788 204.971,210.480 204.884 C 210.112 204.780,209.920 204.903,209.920 205.243 C 209.920 205.581,209.643 205.760,209.120 205.760 C 208.622 205.760,208.320 205.941,208.320 206.240 C 208.320 206.561,207.999 206.720,207.352 206.720 C 206.527 206.720,206.355 206.865,206.187 207.707 C 206.002 208.630,205.919 208.681,204.915 208.493 C 204.072 208.334,203.840 208.398,203.840 208.785 C 203.840 209.100,203.548 209.280,203.040 209.280 C 202.600 209.280,202.240 209.424,202.240 209.600 C 202.240 209.776,201.793 209.920,201.246 209.920 C 200.529 209.920,200.299 210.044,200.422 210.365 C 200.537 210.664,200.276 210.873,199.624 211.003 C 198.479 211.232,197.967 210.995,198.215 210.351 C 198.314 210.092,198.253 209.973,198.076 210.082 C 197.902 210.190,197.760 210.053,197.760 209.779 C 197.760 209.460,197.471 209.280,196.960 209.280 C 196.437 209.280,196.160 209.101,196.160 208.763 C 196.160 208.423,195.968 208.300,195.600 208.404 C 194.158 208.811,194.080 208.795,194.104 208.096 C 194.117 207.709,194.009 207.465,193.864 207.555 C 193.719 207.644,193.600 207.493,193.600 207.219 C 193.600 206.878,193.296 206.720,192.640 206.720 C 192.000 206.720,191.680 206.560,191.680 206.240 C 191.680 205.941,191.378 205.760,190.880 205.760 C 190.357 205.760,190.080 205.581,190.080 205.243 C 190.080 204.903,189.888 204.780,189.520 204.884 C 188.078 205.291,188.000 205.275,188.024 204.576 C 188.037 204.189,187.929 203.945,187.784 204.035 C 187.639 204.124,187.520 203.973,187.520 203.699 C 187.520 203.380,187.231 203.200,186.720 203.200 C 186.222 203.200,185.920 203.019,185.920 202.720 C 185.920 202.404,185.604 202.240,184.994 202.240 C 184.438 202.240,183.989 202.034,183.870 201.724 C 183.711 201.308,183.581 201.284,183.200 201.600 C 182.511 202.172,181.851 201.783,181.605 200.662 C 181.437 199.896,181.219 199.680,180.615 199.680 C 180.129 199.680,179.840 199.495,179.840 199.185 C 179.840 198.796,179.608 198.735,178.752 198.895 C 177.734 199.086,177.650 199.035,177.447 198.110 C 177.264 197.279,177.079 197.120,176.295 197.120 C 175.677 197.120,175.360 196.957,175.360 196.640 C 175.360 196.341,175.058 196.160,174.560 196.160 C 174.120 196.160,173.760 196.007,173.760 195.820 C 173.760 195.629,173.310 195.523,172.737 195.580 C 171.825 195.669,171.681 195.567,171.411 194.640 C 171.160 193.780,170.949 193.600,170.194 193.600 C 169.662 193.600,169.280 193.428,169.280 193.188 C 169.280 192.962,168.969 192.753,168.589 192.724 C 168.209 192.695,167.807 192.526,167.696 192.347 C 167.586 192.167,167.078 192.052,166.568 192.090 C 165.774 192.150,165.597 192.010,165.334 191.120 C 165.100 190.328,164.848 190.080,164.274 190.080 C 163.859 190.080,163.520 189.936,163.520 189.760 C 163.520 189.584,162.872 189.440,162.080 189.440 C 161.288 189.440,160.640 189.296,160.640 189.120 C 160.640 188.944,160.417 188.800,160.143 188.800 C 159.870 188.800,159.496 188.368,159.312 187.840 C 159.065 187.133,158.775 186.880,158.209 186.880 C 157.739 186.880,157.440 186.693,157.440 186.400 C 157.440 186.080,157.120 185.920,156.480 185.920 L 155.520 185.920 155.520 160.183 C 155.520 135.942,155.487 134.438,154.960 134.301 C 154.652 134.220,155.084 134.138,155.920 134.117 C 157.041 134.090,157.440 133.954,157.440 133.600 C 157.440 133.307,157.739 133.120,158.209 133.120 C 158.780 133.120,159.066 132.866,159.321 132.133 C 159.631 131.244,159.762 131.167,160.633 131.358 C 161.390 131.525,161.600 131.461,161.600 131.065 C 161.600 130.717,161.899 130.560,162.560 130.560 C 163.088 130.560,163.520 130.416,163.520 130.240 C 163.520 130.064,163.880 129.920,164.320 129.920 C 164.818 129.920,165.120 129.739,165.120 129.440 C 165.120 129.176,165.248 128.960,165.404 128.960 C 165.561 128.960,165.669 128.708,165.644 128.400 C 165.609 127.954,165.812 127.860,166.640 127.940 C 167.225 127.997,167.680 127.892,167.680 127.700 C 167.680 127.513,168.040 127.360,168.480 127.360 C 168.978 127.360,169.280 127.179,169.280 126.880 C 169.280 126.565,169.595 126.400,170.194 126.400 C 170.949 126.400,171.160 126.220,171.411 125.360 C 171.681 124.433,171.825 124.331,172.737 124.420 C 173.310 124.477,173.760 124.371,173.760 124.180 C 173.760 123.993,174.120 123.840,174.560 123.840 C 175.242 123.840,175.365 123.686,175.397 122.800 C 175.418 122.228,175.500 122.012,175.581 122.320 C 175.740 122.928,177.280 123.125,177.280 122.537 C 177.280 121.926,178.173 121.280,179.017 121.280 C 179.535 121.280,179.840 121.102,179.840 120.800 C 179.840 120.501,180.142 120.320,180.640 120.320 C 181.310 120.320,181.440 120.169,181.440 119.387 C 181.440 118.336,181.944 118.014,182.855 118.484 C 183.318 118.723,183.563 118.673,183.850 118.281 C 184.059 117.994,184.611 117.760,185.075 117.760 C 185.613 117.760,185.920 117.585,185.920 117.280 C 185.920 116.981,186.222 116.800,186.720 116.800 C 187.231 116.800,187.520 116.620,187.520 116.301 C 187.520 116.027,187.648 115.881,187.804 115.978 C 187.960 116.074,188.068 115.903,188.044 115.597 C 188.009 115.158,188.221 115.057,189.040 115.121 C 189.788 115.180,190.080 115.067,190.080 114.721 C 190.080 114.421,190.381 114.240,190.880 114.240 C 191.378 114.240,191.680 114.059,191.680 113.760 C 191.680 113.458,191.985 113.280,192.503 113.280 C 193.565 113.280,194.230 112.599,194.277 111.463 C 194.299 110.922,194.373 110.785,194.461 111.120 C 194.667 111.911,196.160 111.880,196.160 111.084 C 196.160 110.622,196.338 110.523,196.960 110.642 C 197.427 110.731,197.760 110.646,197.760 110.437 C 197.760 110.241,198.192 110.080,198.720 110.080 C 199.360 110.080,199.680 109.920,199.680 109.600 C 199.680 109.336,199.891 109.120,200.150 109.120 C 200.436 109.120,200.548 109.308,200.436 109.600 M198.720 123.360 C 198.720 123.659,198.418 123.840,197.920 123.840 C 197.480 123.840,197.120 123.984,197.120 124.160 C 197.120 124.336,196.840 124.480,196.499 124.480 C 196.157 124.480,195.775 124.646,195.649 124.849 C 195.500 125.092,195.563 125.131,195.832 124.965 C 196.106 124.795,196.193 124.859,196.092 125.155 C 196.009 125.400,195.648 125.558,195.290 125.507 C 194.930 125.455,194.554 125.634,194.449 125.907 C 194.345 126.178,193.896 126.400,193.450 126.400 C 192.943 126.400,192.640 126.580,192.640 126.880 C 192.640 127.157,192.351 127.360,191.957 127.360 C 191.581 127.360,190.940 127.720,190.532 128.160 C 190.124 128.600,189.496 128.960,189.135 128.960 C 188.766 128.960,188.480 129.170,188.480 129.440 C 188.480 129.760,188.160 129.920,187.520 129.920 C 186.992 129.920,186.560 130.064,186.560 130.240 C 186.560 130.416,186.221 130.560,185.806 130.560 C 185.232 130.560,184.980 130.808,184.746 131.600 C 184.483 132.490,184.306 132.630,183.512 132.570 C 183.002 132.532,182.501 132.637,182.399 132.802 C 182.296 132.968,181.866 133.157,181.443 133.221 C 181.020 133.286,180.618 133.505,180.550 133.709 C 180.482 133.913,180.079 134.080,179.653 134.080 C 179.179 134.080,178.880 134.266,178.880 134.560 C 178.880 134.824,178.664 135.040,178.400 135.040 C 178.136 135.040,177.920 135.256,177.920 135.520 C 177.920 135.819,177.618 136.000,177.120 136.000 C 176.362 136.000,176.175 136.275,176.298 137.207 C 176.327 137.431,176.102 137.863,175.798 138.167 C 175.273 138.691,175.253 138.685,175.418 138.053 C 175.563 137.497,175.471 137.409,174.865 137.524 C 174.465 137.601,174.064 137.946,173.974 138.291 C 173.883 138.637,173.618 138.890,173.385 138.853 C 171.580 138.570,170.186 139.290,170.393 140.397 C 170.533 141.142,170.490 141.434,170.260 141.293 C 170.073 141.177,169.920 140.875,169.920 140.621 C 169.920 140.368,169.632 140.160,169.280 140.160 C 168.748 140.160,168.640 140.373,168.640 141.430 C 168.640 142.427,168.537 142.660,168.160 142.516 C 167.740 142.355,167.680 143.443,167.680 151.156 C 167.680 158.491,167.754 159.952,168.118 159.812 C 168.378 159.712,168.626 159.911,168.728 160.302 C 168.929 161.070,170.240 161.225,170.240 160.480 C 170.240 160.216,170.384 160.000,170.560 160.000 C 170.736 160.000,170.880 159.784,170.880 159.520 C 170.880 159.218,171.185 159.040,171.703 159.040 C 172.610 159.040,173.440 158.382,173.440 157.662 C 173.440 157.304,173.759 157.235,174.846 157.357 C 176.206 157.510,176.260 157.483,176.471 156.521 C 176.724 155.369,177.185 154.977,177.692 155.484 C 178.202 155.994,178.880 155.923,178.880 155.360 C 178.880 155.061,179.182 154.880,179.680 154.880 C 180.362 154.880,180.485 154.726,180.517 153.840 C 180.538 153.268,180.620 153.052,180.701 153.360 C 180.860 153.968,182.400 154.165,182.400 153.577 C 182.400 152.966,183.293 152.320,184.137 152.320 C 184.655 152.320,184.960 152.142,184.960 151.840 C 184.960 151.541,185.262 151.360,185.760 151.360 C 186.258 151.360,186.560 151.179,186.560 150.880 C 186.560 150.616,186.704 150.400,186.880 150.400 C 187.056 150.400,187.164 150.220,187.120 150.000 C 187.068 149.738,187.400 149.616,188.080 149.647 C 188.780 149.679,189.120 149.548,189.120 149.247 C 189.120 148.964,189.471 148.800,190.080 148.800 C 190.720 148.800,191.040 148.640,191.040 148.320 C 191.040 148.056,191.184 147.840,191.360 147.840 C 191.634 147.840,191.872 189.494,191.600 189.871 C 191.556 189.932,191.718 190.220,191.959 190.511 C 192.521 191.188,194.240 191.225,194.240 190.560 C 194.240 190.296,194.384 190.080,194.560 190.080 C 194.736 190.080,194.880 189.872,194.880 189.619 C 194.880 188.927,195.483 188.691,196.049 189.160 C 196.466 189.506,196.616 189.484,196.950 189.028 C 197.170 188.727,197.659 188.480,198.035 188.480 C 198.431 188.480,198.720 188.277,198.720 188.000 C 198.720 187.728,199.007 187.520,199.383 187.520 C 200.101 187.520,200.721 187.024,201.033 186.200 C 201.169 185.839,201.484 185.728,202.055 185.837 C 202.666 185.954,202.880 185.861,202.880 185.477 C 202.880 185.116,203.169 184.960,203.840 184.960 C 204.480 184.960,204.800 184.800,204.800 184.480 C 204.800 184.187,205.098 184.000,205.565 184.000 C 206.114 184.000,206.387 183.774,206.530 183.205 C 206.653 182.714,207.034 182.333,207.525 182.210 L 208.320 182.011 208.320 166.389 C 208.320 151.780,208.284 150.757,207.760 150.621 C 207.227 150.481,207.227 150.472,207.760 150.437 C 208.192 150.408,208.320 150.113,208.320 149.142 C 208.320 148.084,208.434 147.867,209.040 147.772 C 209.956 147.630,211.200 148.390,211.200 149.093 C 211.200 149.847,211.836 150.400,212.704 150.400 C 213.145 150.400,213.440 150.592,213.440 150.880 C 213.440 151.179,213.742 151.360,214.240 151.360 C 214.738 151.360,215.040 151.541,215.040 151.840 C 215.040 152.104,215.256 152.320,215.520 152.320 C 215.784 152.320,216.000 152.464,216.000 152.640 C 216.000 152.816,216.360 152.960,216.800 152.960 C 217.298 152.960,217.600 153.141,217.600 153.440 C 217.600 154.135,219.116 154.063,219.299 153.360 C 219.380 153.052,219.462 153.279,219.483 153.865 C 219.518 154.878,219.568 154.920,220.480 154.720 C 221.244 154.552,221.440 154.617,221.440 155.037 C 221.440 156.288,223.061 156.933,223.659 155.920 C 223.914 155.487,223.945 155.596,223.795 156.400 C 223.617 157.352,223.669 157.440,224.413 157.440 C 224.861 157.440,225.299 157.620,225.388 157.840 C 225.484 158.079,225.560 158.015,225.575 157.680 C 225.601 157.102,226.560 156.869,226.560 157.440 C 226.560 157.616,226.776 157.760,227.040 157.760 C 227.473 157.760,227.662 158.140,227.558 158.800 C 227.537 158.932,227.664 159.040,227.840 159.040 C 228.016 159.040,228.160 159.256,228.160 159.520 C 228.160 159.819,228.462 160.000,228.960 160.000 C 229.458 160.000,229.760 160.181,229.760 160.480 C 229.760 160.747,230.044 160.960,230.400 160.960 C 230.752 160.960,231.040 160.816,231.040 160.640 C 231.040 160.179,231.916 160.245,232.108 160.720 C 232.197 160.940,232.279 156.584,232.290 151.040 C 232.302 145.184,232.193 141.145,232.031 141.401 C 231.646 142.008,230.948 141.507,231.142 140.764 C 231.265 140.296,231.127 140.160,230.530 140.160 C 230.059 140.160,229.760 139.974,229.760 139.680 C 229.760 139.384,229.460 139.200,228.979 139.200 C 228.549 139.200,228.109 139.056,228.000 138.880 C 227.891 138.704,227.451 138.560,227.021 138.560 C 226.540 138.560,226.240 138.376,226.240 138.080 C 226.240 137.816,226.024 137.600,225.760 137.600 C 225.496 137.600,225.280 137.384,225.280 137.120 C 225.280 136.821,224.978 136.640,224.480 136.640 C 224.040 136.640,223.680 136.496,223.680 136.320 C 223.680 136.144,223.320 136.000,222.880 136.000 C 222.382 136.000,222.080 135.819,222.080 135.520 C 222.080 135.200,221.760 135.040,221.120 135.040 C 220.592 135.040,220.160 134.886,220.160 134.697 C 220.160 134.163,219.183 133.317,218.436 133.204 C 218.064 133.147,217.712 132.962,217.653 132.791 C 217.595 132.620,217.251 132.480,216.889 132.480 C 216.527 132.480,216.046 132.228,215.821 131.921 C 215.596 131.613,215.297 131.477,215.155 131.618 C 215.014 131.759,215.110 132.009,215.369 132.172 C 215.975 132.556,215.617 132.562,214.626 132.185 C 214.119 131.993,213.782 131.548,213.653 130.905 C 213.485 130.065,213.313 129.920,212.488 129.920 C 211.841 129.920,211.520 129.761,211.520 129.440 C 211.520 129.141,211.218 128.960,210.720 128.960 C 210.222 128.960,209.920 128.779,209.920 128.480 C 209.920 128.216,209.704 128.000,209.440 128.000 C 209.176 128.000,208.960 127.856,208.960 127.680 C 208.960 127.504,208.600 127.360,208.160 127.360 C 207.662 127.360,207.360 127.179,207.360 126.880 C 207.360 126.587,207.062 126.400,206.594 126.400 C 206.173 126.400,205.744 126.180,205.641 125.912 C 205.509 125.566,205.213 125.485,204.627 125.632 C 203.961 125.799,203.767 125.708,203.624 125.163 C 203.486 124.634,203.280 124.528,202.683 124.678 C 202.116 124.820,201.920 124.737,201.920 124.355 C 201.920 124.072,201.776 123.840,201.600 123.840 C 201.424 123.840,201.280 123.624,201.280 123.360 C 201.280 123.013,200.924 122.880,200.000 122.880 C 199.076 122.880,198.720 123.013,198.720 123.360 " stroke="none" fill="#34e4b4" fill-rule="evenodd"></path><path id="path1" d="M193.494 93.254 C 193.293 93.778,194.017 94.145,194.720 93.876 C 194.984 93.774,195.200 93.491,195.200 93.246 C 195.200 92.657,193.721 92.663,193.494 93.254 M204.652 93.100 C 204.397 93.513,205.402 94.030,206.103 93.847 C 206.911 93.635,206.497 92.800,205.585 92.800 C 205.174 92.800,204.754 92.935,204.652 93.100 M189.120 95.840 C 189.120 96.107,189.404 96.320,189.760 96.320 C 190.116 96.320,190.400 96.107,190.400 95.840 C 190.400 95.573,190.116 95.360,189.760 95.360 C 189.404 95.360,189.120 95.573,189.120 95.840 M209.920 95.840 C 209.920 96.104,210.136 96.320,210.400 96.320 C 210.664 96.320,210.880 96.104,210.880 95.840 C 210.880 95.576,210.664 95.360,210.400 95.360 C 210.136 95.360,209.920 95.576,209.920 95.840 M187.520 96.800 C 187.520 97.067,187.804 97.280,188.160 97.280 C 188.516 97.280,188.800 97.067,188.800 96.800 C 188.800 96.533,188.516 96.320,188.160 96.320 C 187.804 96.320,187.520 96.533,187.520 96.800 M211.520 96.827 C 211.520 97.392,212.209 97.293,212.407 96.700 C 212.476 96.491,212.305 96.320,212.027 96.320 C 211.748 96.320,211.520 96.548,211.520 96.827 M216.000 99.350 C 216.000 99.635,216.188 99.748,216.478 99.636 C 216.741 99.536,216.877 99.324,216.779 99.166 C 216.500 98.715,216.000 98.832,216.000 99.350 M177.383 102.592 C 177.181 103.119,177.849 103.762,178.305 103.480 C 178.445 103.393,178.560 103.043,178.560 102.701 C 178.560 101.952,177.661 101.869,177.383 102.592 M221.610 102.383 C 221.329 102.838,221.688 103.360,222.282 103.360 C 222.563 103.360,222.723 103.135,222.663 102.827 C 222.539 102.184,221.900 101.915,221.610 102.383 M171.255 106.127 C 171.317 106.449,171.631 106.763,171.953 106.825 C 172.375 106.907,172.507 106.775,172.425 106.353 C 172.363 106.031,172.049 105.717,171.727 105.655 C 171.305 105.573,171.173 105.705,171.255 106.127 M227.840 106.230 C 227.840 106.658,227.994 106.801,228.320 106.676 C 228.584 106.574,228.800 106.291,228.800 106.046 C 228.800 105.801,228.584 105.600,228.320 105.600 C 228.056 105.600,227.840 105.883,227.840 106.230 M165.180 109.676 C 165.341 110.510,166.400 110.604,166.400 109.783 C 166.400 109.326,166.194 109.120,165.737 109.120 C 165.279 109.120,165.106 109.292,165.180 109.676 M211.280 114.794 C 210.503 115.065,210.824 116.160,211.680 116.160 C 212.252 116.160,212.480 115.987,212.480 115.554 C 212.480 114.909,211.937 114.565,211.280 114.794 M187.876 115.452 C 187.624 115.924,187.706 116.036,188.345 116.089 C 188.927 116.137,189.120 115.994,189.120 115.516 C 189.120 114.724,188.289 114.682,187.876 115.452 M154.941 115.760 C 155.000 116.068,155.333 116.320,155.680 116.320 C 156.027 116.320,156.360 116.068,156.419 115.760 C 156.500 115.341,156.314 115.200,155.680 115.200 C 155.046 115.200,154.860 115.341,154.941 115.760 M243.343 115.548 C 243.042 116.034,243.655 116.563,244.362 116.426 C 245.321 116.242,245.321 115.200,244.362 115.200 C 243.920 115.200,243.461 115.357,243.343 115.548 M181.840 118.314 C 181.107 118.570,181.409 119.360,182.240 119.360 C 182.710 119.360,183.040 119.176,183.040 118.914 C 183.040 118.408,182.436 118.106,181.840 118.314 M216.960 118.880 C 216.960 119.179,217.262 119.360,217.760 119.360 C 218.258 119.360,218.560 119.179,218.560 118.880 C 218.560 118.581,218.258 118.400,217.760 118.400 C 217.262 118.400,216.960 118.581,216.960 118.880 M148.857 119.253 C 149.012 120.056,149.671 120.125,150.070 119.379 C 150.384 118.792,150.332 118.720,149.588 118.720 C 148.981 118.720,148.781 118.865,148.857 119.253 M201.920 124.320 C 201.920 124.584,202.136 124.800,202.400 124.800 C 202.664 124.800,202.880 124.584,202.880 124.320 C 202.880 124.056,202.664 123.840,202.400 123.840 C 202.136 123.840,201.920 124.056,201.920 124.320 M171.740 124.367 C 171.287 124.820,171.543 125.440,172.183 125.440 C 172.631 125.440,172.813 125.266,172.743 124.907 C 172.629 124.318,172.083 124.024,171.740 124.367 M227.420 124.367 C 226.967 124.820,227.223 125.440,227.863 125.440 C 228.311 125.440,228.493 125.266,228.423 124.907 C 228.309 124.318,227.763 124.024,227.420 124.367 M139.600 124.716 C 139.035 124.910,139.089 126.400,139.661 126.400 C 139.915 126.400,140.203 126.269,140.302 126.110 C 140.587 125.648,140.041 124.564,139.600 124.716 M195.279 125.197 C 195.332 125.357,195.513 125.488,195.680 125.488 C 195.847 125.488,196.028 125.357,196.081 125.197 C 196.134 125.037,195.954 124.907,195.680 124.907 C 195.406 124.907,195.226 125.037,195.279 125.197 M203.600 125.200 C 203.801 125.806,204.800 125.892,204.800 125.303 C 204.800 125.007,204.526 124.800,204.133 124.800 C 203.742 124.800,203.522 124.965,203.600 125.200 M259.840 125.726 C 259.840 126.253,260.046 126.731,260.320 126.836 C 260.690 126.978,260.800 126.765,260.800 125.910 C 260.800 125.137,260.654 124.800,260.320 124.800 C 260.004 124.800,259.840 125.116,259.840 125.726 M165.610 127.983 C 165.329 128.438,165.688 128.960,166.282 128.960 C 166.563 128.960,166.723 128.735,166.663 128.427 C 166.539 127.784,165.900 127.515,165.610 127.983 M233.500 127.887 C 233.047 128.340,233.303 128.960,233.943 128.960 C 234.391 128.960,234.573 128.786,234.503 128.427 C 234.389 127.838,233.843 127.544,233.500 127.887 M213.760 131.184 C 213.760 131.827,215.220 132.727,215.618 132.329 C 215.711 132.236,215.629 132.160,215.436 132.160 C 215.242 132.160,215.038 131.837,214.982 131.443 C 214.846 130.491,213.760 130.261,213.760 131.184 M159.573 131.413 C 159.133 131.854,159.383 132.480,160.000 132.480 C 160.427 132.480,160.640 132.267,160.640 131.840 C 160.640 131.223,160.014 130.973,159.573 131.413 M239.360 131.817 C 239.360 132.274,239.566 132.480,240.023 132.480 C 240.481 132.480,240.654 132.308,240.580 131.924 C 240.419 131.090,239.360 130.996,239.360 131.817 M183.240 132.012 C 183.034 132.549,183.762 132.985,184.305 132.649 C 184.489 132.535,184.640 132.235,184.640 131.981 C 184.640 131.364,183.479 131.389,183.240 132.012 M175.654 136.701 C 175.298 138.038,175.365 138.601,175.824 138.142 C 176.395 137.571,176.459 137.084,176.000 136.800 C 175.824 136.691,175.668 136.647,175.654 136.701 M172.800 138.057 C 172.800 138.308,172.548 138.579,172.240 138.661 C 171.932 138.742,172.183 138.785,172.797 138.756 C 174.060 138.697,174.693 137.600,173.463 137.600 C 173.099 137.600,172.800 137.805,172.800 138.057 M169.920 140.602 C 169.920 140.866,170.064 141.171,170.240 141.280 C 170.416 141.389,170.560 141.262,170.560 140.998 C 170.560 140.734,170.416 140.429,170.240 140.320 C 170.064 140.211,169.920 140.338,169.920 140.602 M231.097 141.013 C 231.252 141.816,232.000 141.927,232.000 141.147 C 232.000 140.754,231.793 140.480,231.497 140.480 C 231.199 140.480,231.035 140.698,231.097 141.013 M167.680 141.726 C 167.680 142.059,167.896 142.414,168.160 142.516 C 168.507 142.649,168.640 142.481,168.640 141.910 C 168.640 141.421,168.457 141.120,168.160 141.120 C 167.896 141.120,167.680 141.393,167.680 141.726 M209.360 147.756 C 208.796 147.950,208.861 148.800,209.440 148.800 C 209.704 148.800,209.920 149.016,209.920 149.280 C 209.920 149.547,210.204 149.760,210.560 149.760 C 211.444 149.760,211.392 148.678,210.480 148.087 C 210.084 147.830,209.580 147.681,209.360 147.756 M187.102 149.645 C 186.768 149.978,187.191 150.400,187.859 150.400 C 188.200 150.400,188.480 150.184,188.480 149.920 C 188.480 149.445,187.498 149.249,187.102 149.645 M220.320 154.880 C 220.052 155.313,220.414 155.840,220.979 155.840 C 221.232 155.840,221.440 155.552,221.440 155.200 C 221.440 154.538,220.668 154.317,220.320 154.880 M176.860 155.407 C 176.407 155.860,176.663 156.480,177.303 156.480 C 177.751 156.480,177.933 156.306,177.863 155.947 C 177.749 155.358,177.203 155.064,176.860 155.407 M173.440 157.760 C 173.440 158.112,173.648 158.400,173.901 158.400 C 174.569 158.400,174.877 157.736,174.361 157.409 C 173.676 156.975,173.440 157.065,173.440 157.760 M225.600 157.623 C 225.600 158.578,227.012 159.441,227.605 158.849 C 227.916 158.537,227.488 157.760,227.006 157.760 C 226.761 157.760,226.560 157.616,226.560 157.440 C 226.560 157.264,226.344 157.120,226.080 157.120 C 225.816 157.120,225.600 157.346,225.600 157.623 M170.880 159.520 C 170.880 159.784,171.096 160.000,171.360 160.000 C 171.624 160.000,171.840 159.784,171.840 159.520 C 171.840 159.256,171.624 159.040,171.360 159.040 C 171.096 159.040,170.880 159.256,170.880 159.520 M167.840 160.000 C 167.578 160.424,167.929 160.960,168.469 160.960 C 168.743 160.960,168.839 160.726,168.733 160.320 C 168.552 159.629,168.157 159.487,167.840 160.000 M230.914 160.826 C 230.632 161.560,230.655 161.600,231.360 161.600 C 231.787 161.600,232.000 161.387,232.000 160.960 C 232.000 160.201,231.192 160.101,230.914 160.826 M206.843 182.640 C 206.306 183.174,206.315 183.205,207.024 183.308 C 207.697 183.406,208.302 182.942,208.315 182.320 C 208.324 181.876,207.411 182.075,206.843 182.640 M201.068 186.099 C 200.825 186.732,201.057 186.946,201.714 186.693 C 202.375 186.440,202.389 186.046,201.748 185.800 C 201.465 185.691,201.176 185.818,201.068 186.099 M159.360 188.030 C 159.360 188.310,159.648 188.615,160.000 188.707 C 160.352 188.799,160.640 189.002,160.640 189.157 C 160.640 189.313,160.856 189.440,161.120 189.440 C 161.384 189.440,161.600 189.224,161.600 188.960 C 161.600 188.696,161.384 188.480,161.120 188.480 C 160.856 188.480,160.640 188.264,160.640 188.000 C 160.640 187.733,160.356 187.520,160.000 187.520 C 159.628 187.520,159.360 187.733,159.360 188.030 M238.400 188.960 C 238.400 189.224,238.616 189.440,238.880 189.440 C 239.144 189.440,239.360 189.224,239.360 188.960 C 239.360 188.696,239.144 188.480,238.880 188.480 C 238.616 188.480,238.400 188.696,238.400 188.960 M195.100 189.007 C 194.647 189.460,194.903 190.080,195.543 190.080 C 195.991 190.080,196.173 189.906,196.103 189.547 C 195.989 188.958,195.443 188.664,195.100 189.007 M165.500 191.596 C 165.661 192.430,166.720 192.524,166.720 191.703 C 166.720 191.246,166.514 191.040,166.057 191.040 C 165.599 191.040,165.426 191.212,165.500 191.596 M233.341 191.600 C 233.400 191.908,233.661 192.160,233.920 192.160 C 234.179 192.160,234.440 191.908,234.499 191.600 C 234.575 191.207,234.402 191.040,233.920 191.040 C 233.438 191.040,233.265 191.207,233.341 191.600 M259.840 194.363 C 259.840 195.260,259.945 195.460,260.337 195.309 C 260.924 195.084,260.848 193.558,260.240 193.358 C 259.970 193.269,259.840 193.597,259.840 194.363 M171.581 195.120 C 171.640 195.428,171.901 195.680,172.160 195.680 C 172.419 195.680,172.680 195.428,172.739 195.120 C 172.815 194.727,172.642 194.560,172.160 194.560 C 171.678 194.560,171.505 194.727,171.581 195.120 M227.261 195.120 C 227.320 195.428,227.581 195.680,227.840 195.680 C 228.099 195.680,228.360 195.428,228.419 195.120 C 228.495 194.727,228.322 194.560,227.840 194.560 C 227.358 194.560,227.185 194.727,227.261 195.120 M143.058 196.789 C 142.517 197.123,142.852 198.080,143.510 198.080 C 143.782 198.080,144.000 197.803,144.000 197.459 C 144.000 196.697,143.631 196.435,143.058 196.789 M256.320 197.440 C 256.320 197.860,256.475 198.000,256.800 197.876 C 257.064 197.774,257.280 197.578,257.280 197.440 C 257.280 197.302,257.064 197.106,256.800 197.004 C 256.475 196.880,256.320 197.020,256.320 197.440 M177.600 198.560 C 177.600 198.827,177.884 199.040,178.240 199.040 C 178.596 199.040,178.880 198.827,178.880 198.560 C 178.880 198.293,178.596 198.080,178.240 198.080 C 177.884 198.080,177.600 198.293,177.600 198.560 M221.193 198.460 C 221.391 199.053,222.080 199.152,222.080 198.587 C 222.080 198.308,221.852 198.080,221.573 198.080 C 221.295 198.080,221.124 198.251,221.193 198.460 M181.760 201.130 C 181.760 201.683,182.524 202.079,183.011 201.778 C 183.511 201.469,183.041 200.640,182.366 200.640 C 182.033 200.640,181.760 200.861,181.760 201.130 M216.854 201.094 C 216.669 201.576,217.460 202.044,217.949 201.742 C 218.109 201.643,218.240 201.355,218.240 201.101 C 218.240 200.505,217.083 200.499,216.854 201.094 M155.104 203.722 C 154.602 204.225,154.921 204.800,155.703 204.800 C 156.313 204.800,156.499 204.656,156.420 204.244 C 156.308 203.661,155.490 203.337,155.104 203.722 M244.053 203.733 C 243.613 204.174,243.863 204.800,244.480 204.800 C 244.907 204.800,245.120 204.587,245.120 204.160 C 245.120 203.543,244.494 203.293,244.053 203.733 M187.798 204.535 C 187.926 204.883,188.133 205.157,188.256 205.144 C 188.379 205.131,188.624 205.120,188.800 205.120 C 189.167 205.120,189.244 204.173,188.880 204.136 C 188.748 204.122,188.398 204.064,188.102 204.007 C 187.687 203.927,187.617 204.048,187.798 204.535 M210.956 204.423 C 210.784 204.872,211.471 205.508,211.866 205.264 C 211.985 205.190,212.156 204.850,212.246 204.508 C 212.439 203.767,211.238 203.689,210.956 204.423 M160.794 207.370 C 160.669 207.571,160.718 207.886,160.902 208.070 C 161.332 208.500,162.335 208.125,162.160 207.600 C 161.982 207.065,161.076 206.913,160.794 207.370 M237.984 207.242 C 237.482 207.745,237.801 208.320,238.583 208.320 C 239.193 208.320,239.379 208.176,239.300 207.764 C 239.188 207.181,238.370 206.857,237.984 207.242 M193.891 208.091 C 194.012 208.419,194.213 208.677,194.336 208.664 C 194.459 208.651,194.704 208.640,194.880 208.640 C 195.056 208.640,195.200 208.354,195.200 208.004 C 195.200 207.528,195.006 207.383,194.435 207.430 C 193.833 207.480,193.717 207.621,193.891 208.091 M204.800 208.000 C 204.800 208.427,205.013 208.640,205.440 208.640 C 205.867 208.640,206.080 208.427,206.080 208.000 C 206.080 207.573,205.867 207.360,205.440 207.360 C 205.013 207.360,204.800 207.573,204.800 208.000 M164.010 208.414 C 163.873 208.729,163.851 209.077,163.960 209.187 C 164.285 209.512,164.547 209.056,164.398 208.425 C 164.265 207.866,164.248 207.866,164.010 208.414 M198.116 210.627 C 198.489 211.325,199.520 211.272,199.520 210.556 C 199.520 210.260,199.193 210.068,198.654 210.048 C 197.898 210.020,197.830 210.093,198.116 210.627 M228.800 212.800 C 228.800 212.976,228.512 213.120,228.160 213.120 C 227.733 213.120,227.520 213.333,227.520 213.760 C 227.520 214.187,227.733 214.400,228.160 214.400 C 228.512 214.400,228.800 214.199,228.800 213.954 C 228.800 213.709,229.016 213.426,229.280 213.324 C 229.544 213.223,229.760 212.992,229.760 212.810 C 229.760 212.629,229.544 212.480,229.280 212.480 C 229.016 212.480,228.800 212.624,228.800 212.800 M171.107 213.760 C 171.200 214.114,171.544 214.400,171.877 214.400 C 172.267 214.400,172.480 214.173,172.480 213.760 C 172.480 213.297,172.267 213.120,171.710 213.120 C 171.097 213.120,170.974 213.251,171.107 213.760 M177.600 217.440 C 177.600 217.704,177.744 217.920,177.920 217.920 C 178.096 217.920,178.240 217.704,178.240 217.440 C 178.240 217.176,178.096 216.960,177.920 216.960 C 177.744 216.960,177.600 217.176,177.600 217.440 M221.965 217.182 C 221.604 217.542,221.745 217.920,222.240 217.920 C 222.504 217.920,222.720 217.784,222.720 217.619 C 222.720 217.215,222.220 216.926,221.965 217.182 M181.784 219.505 C 181.279 219.818,181.602 220.480,182.259 220.480 C 182.745 220.480,182.900 219.669,182.465 219.400 C 182.324 219.313,182.018 219.361,181.784 219.505 M217.500 219.407 C 217.047 219.860,217.303 220.480,217.943 220.480 C 218.391 220.480,218.573 220.306,218.503 219.947 C 218.389 219.358,217.843 219.064,217.500 219.407 M183.360 220.640 C 183.360 220.904,183.576 221.120,183.840 221.120 C 184.104 221.120,184.320 220.904,184.320 220.640 C 184.320 220.376,184.104 220.160,183.840 220.160 C 183.576 220.160,183.360 220.376,183.360 220.640 M193.813 226.133 C 193.696 226.251,193.600 226.539,193.600 226.773 C 193.600 227.290,195.071 227.348,195.382 226.844 C 195.746 226.256,194.332 225.615,193.813 226.133 M205.024 226.122 C 204.522 226.625,204.841 227.200,205.623 227.200 C 206.233 227.200,206.419 227.056,206.340 226.644 C 206.228 226.061,205.410 225.737,205.024 226.122 " stroke="none" fill="#53c6a8" fill-rule="evenodd"></path></g></svg>